# Blender v2.79 (sub 0) OBJ File: 'EnvironmentObjects.blend'
# www.blender.org
mtllib Rock2.mtl
o Rock2
v -1.422543 -0.388953 0.681642
v -1.139177 0.393406 0.634407
v -1.000000 -0.239363 -1.000000
v 0.464123 -0.200274 0.882740
v 0.435145 0.133485 0.763468
v 0.733891 -0.239363 -0.555479
v -1.422543 0.020270 0.816092
v -0.935499 0.109354 -1.054271
v 0.662384 -0.026025 -0.650955
v 0.442374 -0.042378 0.884323
v -1.559590 -0.482669 0.000000
v -1.245320 0.393406 0.159583
v 0.966307 -0.169205 0.034326
v 0.665131 0.110951 0.198376
v 0.931761 -0.025397 0.065264
v -1.641507 0.090622 0.000000
v -0.067716 -0.239363 -1.000000
v -0.502194 -0.283347 1.112155
v -0.332163 0.276596 0.926508
v -0.510747 0.020270 1.277118
v -0.108398 0.020270 -1.000000
v -0.292323 0.393406 0.476699
v -0.925217 0.732124 -0.123836
v -0.618806 0.816937 -0.671400
v -0.071242 0.742512 -0.671400
v 0.323870 0.616733 -0.502672
v -0.706179 0.531305 -0.870837
v 0.423494 0.435594 -0.585700
v -0.044799 0.468324 -0.832468
v -1.205313 0.518061 -0.278813
v 0.485249 0.532434 -0.123836
v 0.613939 0.436038 -0.218776
v -0.071242 0.732124 -0.123836
v -1.211704 -0.617602 0.004614
v -1.111281 -0.548929 0.504099
v -0.198134 -0.439315 -0.867274
v -0.801655 -0.439315 -0.728154
v 0.639192 -0.387905 0.029766
v 0.468885 -0.439315 -0.402424
v -0.436879 -0.471544 0.819565
v -0.068887 -0.546398 0.004614
v 0.591851 -0.026025 -0.813744
v 0.671653 -0.307727 -0.807209
v 0.090634 0.160835 -1.146608
v 0.567271 -0.439315 -0.706588
v 0.138494 -0.239363 -1.100264
v 0.404244 0.414353 -0.789603
v 0.082030 0.468324 -0.932732
v 0.096602 -0.439315 -1.032319
v 0.292919 -0.242448 -1.163943
v 0.592810 -0.267563 -0.964219
v 0.554639 -0.445970 -0.924381
v 0.158049 -0.445970 -1.132377
v 0.291605 -0.004293 -1.153980
v 0.519397 -0.082566 -0.974632
v -1.159554 0.172924 0.864736
v -1.017650 0.359784 0.773751
v -0.613511 0.301287 0.920030
v -0.702943 0.172924 1.095609
v -0.193001 -0.489612 1.027095
v 0.341542 -0.431634 0.866981
v 0.731927 -0.409950 0.401011
v 0.503626 -0.562586 0.271671
v -0.115749 -0.620960 0.738537
v 0.246801 -0.578475 0.705564
v 0.009441 -0.673202 0.254117
v 0.154212 -0.674165 0.491630
v -0.421636 0.846893 -0.308281
v -1.151767 0.332073 -1.013828
v -1.270592 0.050817 -1.169377
v -1.321046 -0.181624 -1.144649
v -1.896890 0.038331 -0.601002
v -1.569880 0.323245 -0.711178
v -1.843901 -0.343802 -0.587823
v -1.619612 -0.433743 -0.528870
v -1.236481 -0.314904 -0.936894
vt 0.092637 0.793411
vt 0.161036 0.783630
vt 0.143145 0.800337
vt 0.088418 0.807740
vt 0.117332 0.914975
vt 0.035980 0.897942
vt 0.048878 0.870016
vt 0.095131 0.866470
vt 0.012971 0.888577
vt 0.058696 0.943445
vt 0.058865 0.953536
vt 0.213433 0.935983
vt 0.140586 0.980111
vt 0.155404 0.963800
vt 0.191885 0.941702
vt 0.077238 0.800215
vt 0.075160 0.782493
vt 0.194521 0.882546
vt 0.188723 0.922688
vt 0.123509 0.952107
vt 0.120654 0.956365
vt 0.119999 0.969001
vt 0.050157 0.933687
vt 0.050157 0.923388
vt 0.233138 0.873805
vt 0.230492 0.876175
vt 0.193006 0.938914
vt 0.194672 0.938792
vt 0.215336 0.828627
vt 0.195037 0.840351
vt 0.202573 0.817053
vt 0.210568 0.809345
vt 0.188402 0.846364
vt 0.179269 0.785614
vt 0.215949 0.808105
vt 0.033385 0.871176
vt 0.039659 0.871176
vt 0.209858 0.821314
vt 0.188154 0.771928
vt 0.073999 0.909789
vt 0.125657 0.933953
vt 0.037577 0.862944
vt 0.226433 0.866758
vt 0.208082 0.873456
vt 0.166109 0.861029
vt 0.082523 0.794578
vt 0.087463 0.790421
vt 0.150818 0.794578
vt 0.153934 0.794578
vt 0.013823 0.825140
vt 0.017882 0.826150
vt 0.166063 0.783348
vt 0.169729 0.786898
vt 0.137153 0.817470
vt 0.091642 0.820959
vt 0.059877 0.837500
vt 0.051068 0.831234
vt 0.123079 0.848907
vt 0.030797 0.827332
vt 0.153844 0.871530
vt 0.159844 0.890641
vt 0.150255 0.927747
vt 0.143944 0.804744
vt 0.097716 0.815401
vt 0.066307 0.871530
vt 0.144338 0.949850
vt 0.185283 0.937585
vt 0.215185 0.901893
vt 0.035622 0.813353
vt 0.051369 0.814164
vt 0.166521 0.792102
vt 0.204456 0.808845
vt 0.181558 0.782020
vt 0.204529 0.797319
vt 0.201605 0.800370
vt 0.171227 0.784438
vt 0.181457 0.782784
vt 0.198906 0.796521
vt 0.146852 0.949776
vt 0.179510 0.935044
vt 0.170933 0.908834
vt 0.178025 0.925221
vt 0.197698 0.891985
vt 0.061796 0.781604
vt 0.057931 0.783498
vt 0.243830 0.815179
vt 0.064409 0.799412
vt 0.035062 0.830666
vn 0.0934 0.3453 -0.9338
vn 0.3403 0.7182 0.6069
vn 0.7070 0.6058 0.3650
vn -0.4047 0.4422 0.8004
vn -0.6571 0.3773 -0.6526
vn 0.0230 0.9921 0.1237
vn -0.3913 -0.3604 0.8468
vn 0.8535 0.1042 0.5105
vn 0.7106 -0.6913 0.1312
vn -0.2707 0.9284 -0.2546
vn -0.9663 -0.1122 0.2315
vn 0.9099 0.2050 -0.3607
vn 0.1881 0.3493 -0.9179
vn -0.1427 -0.8466 0.5127
vn 0.6290 0.6487 0.4284
vn -0.6859 0.6965 0.2107
vn 0.5529 -0.8246 -0.1198
vn -0.0994 0.8182 0.5662
vn 0.0262 -0.0898 -0.9956
vn 0.2964 -0.3069 0.9044
vn 0.2751 0.9478 0.1612
vn -0.9070 -0.1225 0.4028
vn 0.3037 0.6448 0.7014
vn -0.4839 -0.1258 -0.8660
vn -0.6056 0.7059 -0.3673
vn 0.4466 0.5156 -0.7312
vn 0.3026 0.9529 0.0181
vn 0.6702 0.7033 -0.2371
vn 0.3167 0.9476 0.0417
vn 0.0873 0.5326 -0.8418
vn 0.8354 0.4197 -0.3550
vn -0.6387 0.7535 0.1560
vn -0.6518 0.7430 0.1518
vn -0.5302 -0.8394 -0.1191
vn 0.1403 -0.9873 -0.0744
vn 0.0266 -0.9850 -0.1705
vn 0.0601 -0.9909 0.1204
vn -0.3797 -0.8468 0.3725
vn -0.0631 -0.7151 -0.6962
vn 0.8126 -0.2105 0.5434
vn -0.3568 -0.9131 0.1973
vn 0.5437 0.3807 -0.7480
vn 0.1218 0.9922 -0.0262
vn 0.8688 0.4344 -0.2379
vn 0.0000 -1.0000 0.0000
vn 0.9197 0.2132 -0.3297
vn -0.4549 -0.2350 -0.8590
vn 0.4615 -0.3606 -0.8105
vn 0.8328 -0.4951 -0.2475
vn -0.0235 -0.9990 0.0382
vn -0.6010 0.0669 -0.7964
vn 0.5936 0.1040 -0.7980
vn -0.2286 -0.0729 -0.9708
vn 0.5707 0.6801 -0.4602
vn 0.8644 0.2683 -0.4252
vn -0.2357 0.7225 0.6499
vn -0.4862 0.6523 0.5814
vn 0.0555 0.7923 0.6076
vn 0.0824 0.9828 0.1652
vn -0.1275 -0.9891 0.0737
vn 0.2032 -0.8363 0.5091
vn 0.4802 -0.8201 0.3111
vn 0.2594 -0.1104 0.9594
vn 0.2066 -0.8445 -0.4941
vn 0.5770 -0.7940 -0.1913
vn 0.1405 -0.9250 0.3529
vn 0.2210 -0.9654 -0.1386
vn 0.4171 -0.8832 0.2145
vn 0.0000 0.8491 0.5283
vn 0.1331 0.9792 -0.1531
vn -0.2104 0.9770 0.0336
vn -0.6952 -0.0471 -0.7173
vn -0.5622 0.4957 -0.6620
vn -0.2236 -0.8592 -0.4602
vn -0.3611 -0.9314 -0.0452
vn -0.6174 0.7639 0.1877
vn -0.0803 -0.9495 -0.3032
vn 0.3612 -0.1954 -0.9118
vn 0.0917 -0.7916 -0.6041
usemtl None
s off
f 21/1/1 8/2/1 27/3/1 29/4/1
f 22/5/2 14/6/2 31/7/2 33/8/2
f 15/9/3 14/6/3 5/10/3 10/11/3
f 7/12/4 20/13/4 59/14/4 56/15/4
f 21/1/5 29/4/5 48/16/5 44/17/5
f 22/5/6 12/18/6 2/19/6 19/20/6
f 18/21/7 20/22/7 7/23/7 1/24/7
f 13/25/8 15/26/8 10/27/8 4/28/8
f 6/29/9 39/30/9 45/31/9 43/32/9
f 30/33/10 27/3/10 69/34/10 73/35/10
f 1/24/11 7/23/11 16/36/11 11/37/11
f 6/29/12 9/38/12 15/26/12 13/25/12
f 27/3/13 8/2/13 70/39/13 69/34/13
f 18/21/14 1/24/14 35/40/14 40/41/14
f 14/6/15 15/9/15 32/42/15 31/7/15
f 7/12/16 2/19/16 12/18/16 16/43/16
f 6/29/17 13/25/17 38/44/17 39/30/17
f 12/18/18 22/5/18 33/8/18 23/45/18
f 3/46/19 8/47/19 21/48/19 17/49/19
f 4/28/20 10/27/20 20/22/20 18/21/20
f 14/6/21 22/5/21 19/20/21 5/10/21
f 11/37/22 16/36/22 72/50/22 74/51/22
f 10/11/23 5/10/23 19/20/23 20/13/23
f 17/49/24 21/48/24 44/52/24 46/53/24
f 30/33/25 23/45/25 24/54/25 27/3/25
f 29/4/26 25/55/26 26/56/26 28/57/26
f 25/55/27 68/58/27 33/8/27
f 28/57/28 26/56/28 31/7/28 32/42/28
f 26/56/29 25/55/29 33/8/29 31/7/29
f 27/3/30 24/54/30 25/55/30 29/4/30
f 15/9/31 9/59/31 28/57/31 32/42/31
f 16/43/32 12/18/32 30/33/32
f 30/33/33 12/18/33 23/45/33
f 40/41/34 41/60/34 66/61/34 64/62/34
f 36/63/35 39/30/35 38/44/35 41/60/35
f 37/64/36 36/63/36 41/60/36 34/65/36
f 34/65/37 41/60/37 40/41/37 35/40/37
f 18/21/38 40/41/38 64/62/38 60/66/38
f 3/46/39 17/49/39 36/63/39 37/64/39
f 13/25/40 4/28/40 61/67/40 62/68/40
f 1/24/41 11/37/41 34/65/41 35/40/41
f 42/69/42 44/17/42 48/16/42 47/70/42
f 29/4/43 28/57/43 47/70/43 48/16/43
f 28/57/44 9/59/44 42/69/44 47/70/44
f 39/30/45 36/63/45 49/71/45 45/31/45
f 9/38/46 6/29/46 43/32/46 42/72/46
f 36/63/47 17/49/47 46/53/47 49/71/47
f 50/73/48 51/74/48 52/75/48 53/76/48
f 45/31/49 52/75/49 51/74/49 43/32/49
f 49/71/50 53/76/50 52/75/50 45/31/50
f 46/53/51 50/73/51 53/76/51 49/71/51
f 50/73/52 54/77/52 55/78/52 51/74/52
f 44/52/53 54/77/53 50/73/53 46/53/53
f 42/72/54 55/78/54 54/77/54 44/52/54
f 43/32/55 51/74/55 55/78/55 42/72/55
f 59/14/56 58/79/56 57/80/56 56/15/56
f 2/19/57 7/12/57 56/15/57 57/80/57
f 20/13/58 19/20/58 58/79/58 59/14/58
f 19/20/59 2/19/59 57/80/59 58/79/59
f 66/61/60 67/81/60 64/62/60
f 61/67/61 60/66/61 64/62/61 65/82/61
f 62/68/62 61/67/62 65/82/62 63/83/62
f 4/28/63 18/21/63 60/66/63 61/67/63
f 41/60/64 38/44/64 63/83/64 66/61/64
f 38/44/65 13/25/65 62/68/65 63/83/65
f 64/62/66 67/81/66 65/82/66
f 67/81/67 66/61/67 63/83/67
f 65/82/68 67/81/68 63/83/68
f 33/8/69 68/58/69 23/45/69
f 68/58/70 25/55/70 24/54/70
f 23/45/71 68/58/71 24/54/71
f 74/51/72 72/50/72 70/84/72 71/85/72
f 70/39/73 72/86/73 73/35/73 69/34/73
f 74/51/74 71/85/74 76/87/74 75/88/74
f 34/65/75 11/37/75 74/51/75 75/88/75
f 16/43/76 30/33/76 73/35/76 72/86/76
f 37/64/77 34/65/77 75/88/77 76/87/77
f 8/47/78 3/46/78 71/85/78 70/84/78
f 3/46/79 37/64/79 76/87/79 71/85/79
