# Blender v2.79 (sub 0) OBJ File: 'EnvironmentObjects.blend'
# www.blender.org
mtllib Mushroom2.mtl
o Mushroom2
v 0.097828 -0.001489 -0.000047
v 0.097828 0.922005 -0.000047
v -0.097865 -0.001489 0.000047
v -0.097865 0.922005 0.000047
v 0.000031 -0.001489 0.097847
v 0.000031 0.922005 0.097847
v 0.000031 -0.001489 -0.097847
v 0.000031 0.922005 -0.097847
v -0.189656 1.303878 0.097846
v -0.189656 1.303878 -0.097846
v -0.000055 1.352325 -0.097846
v -0.000055 1.352325 0.097846
v -0.225306 1.294769 -0.000000
v 0.035595 1.361435 0.000000
v -0.094855 1.328102 -0.134642
v -0.094856 1.328102 0.134642
v -0.105968 1.371589 -0.000000
v -0.230353 1.111331 0.191052
v -0.230353 1.111331 -0.191052
v 0.147043 1.171135 -0.191052
v 0.147043 1.171135 0.191052
v -0.301313 1.100086 -0.000000
v 0.218003 1.182379 0.000000
v -0.041655 1.141233 -0.262898
v -0.041655 1.141233 0.262898
v -0.284018 0.873378 0.284018
v -0.284018 0.873378 -0.284018
v 0.284018 0.873378 -0.284018
v 0.284018 0.873378 0.284018
v -0.390823 0.873378 0.000000
v 0.390823 0.873378 0.000000
v 0.000000 0.873378 -0.390823
v 0.000000 0.873378 0.390823
v -0.328039 0.387290 0.328039
v -0.328039 0.387290 -0.328039
v 0.328039 0.387290 -0.328039
v 0.328039 0.387290 0.328039
v -0.451398 0.387290 0.000000
v 0.451398 0.387290 0.000000
v 0.000000 0.387290 -0.451398
v 0.000000 0.387290 0.451398
vt 0.282417 0.148787
vt 0.374251 0.148787
vt 0.374251 0.126278
vt 0.282417 0.126278
vt 0.282209 0.126232
vt 0.374228 0.126232
vt 0.374228 0.148787
vt 0.282209 0.148787
vt 0.328378 0.202432
vt 0.328378 0.210610
vt 0.322435 0.208375
vt 0.320200 0.202432
vt 0.336556 0.202432
vt 0.334321 0.208375
vt 0.334321 0.196489
vt 0.328378 0.194254
vt 0.322435 0.196489
vt 0.342308 0.188503
vt 0.347546 0.202432
vt 0.309210 0.202432
vt 0.314448 0.188503
vt 0.342308 0.216362
vt 0.328378 0.221600
vt 0.314448 0.216362
vt 0.328378 0.183264
vt 0.328378 0.165917
vt 0.354915 0.175896
vt 0.301842 0.228969
vt 0.291863 0.202432
vt 0.364894 0.202432
vt 0.354915 0.228969
vt 0.328378 0.238948
vt 0.301842 0.175896
vt 0.361800 0.235855
vt 0.328378 0.248423
vt 0.282387 0.202432
vt 0.294956 0.169010
vt 0.328378 0.156442
vt 0.361800 0.169010
vt 0.294956 0.235855
vt 0.374369 0.202432
vn 0.0005 0.0000 1.0000
vn 1.0000 0.0000 0.0000
vn -0.4469 0.8676 0.2182
vn -0.4469 0.8676 -0.2182
vn -0.0241 0.9756 -0.2182
vn -0.0241 0.9756 0.2182
vn 0.1923 0.5807 -0.7911
vn 0.1923 0.5807 0.7911
vn -0.3931 0.4538 -0.7997
vn -0.8894 0.3413 0.3042
vn 0.6661 0.6854 0.2941
vn 0.6661 0.6854 -0.2941
vn -0.3931 0.4538 0.7997
vn 0.8233 0.4693 -0.3192
vn -0.3477 0.3822 0.8562
vn 0.2959 0.4271 -0.8544
vn -0.3477 0.3822 -0.8562
vn -0.8843 0.3371 0.3229
vn 0.8233 0.4693 0.3192
vn -0.8843 0.3371 -0.3229
vn 0.2959 0.4271 0.8544
vn -0.9297 0.1159 -0.3496
vn 0.3496 0.1159 0.9297
vn 0.9297 0.1159 -0.3496
vn -0.3496 0.1159 0.9297
vn 0.3496 0.1159 -0.9297
vn -0.3496 0.1159 -0.9297
vn -0.9297 0.1159 0.3496
vn 0.9297 0.1159 0.3496
vn -0.8894 0.3413 -0.3042
usemtl None
s off
f 1/1/1 2/2/1 4/3/1 3/4/1
f 7/5/2 8/6/2 6/7/2 5/8/2
f 17/9/3 13/10/3 9/11/3 16/12/3
f 15/13/4 10/14/4 13/10/4 17/9/4
f 11/15/5 15/13/5 17/9/5 14/16/5
f 14/16/6 17/9/6 16/12/6 12/17/6
f 11/15/7 20/18/7 24/19/7 15/13/7
f 16/12/8 25/20/8 21/21/8 12/17/8
f 15/13/9 24/19/9 19/22/9 10/14/9
f 13/10/10 22/23/10 18/24/10 9/11/10
f 12/17/11 21/21/11 23/25/11 14/16/11
f 14/16/12 23/25/12 20/18/12 11/15/12
f 9/11/13 18/24/13 25/20/13 16/12/13
f 20/18/14 23/25/14 31/26/14 28/27/14
f 25/20/15 18/24/15 26/28/15 33/29/15
f 24/19/16 20/18/16 28/27/16 32/30/16
f 19/22/17 24/19/17 32/30/17 27/31/17
f 18/24/18 22/23/18 30/32/18 26/28/18
f 23/25/19 21/21/19 29/33/19 31/26/19
f 22/23/20 19/22/20 27/31/20 30/32/20
f 21/21/21 25/20/21 33/29/21 29/33/21
f 30/32/22 27/31/22 35/34/22 38/35/22
f 29/33/23 33/29/23 41/36/23 37/37/23
f 28/27/24 31/26/24 39/38/24 36/39/24
f 33/29/25 26/28/25 34/40/25 41/36/25
f 32/30/26 28/27/26 36/39/26 40/41/26
f 27/31/27 32/30/27 40/41/27 35/34/27
f 26/28/28 30/32/28 38/35/28 34/40/28
f 31/26/29 29/33/29 37/37/29 39/38/29
f 10/14/30 19/22/30 22/23/30 13/10/30
