# Blender v2.79 (sub 0) OBJ File: 'EnvironmentObjects.blend'
# www.blender.org
mtllib Mushroom1.mtl
o Mushroom1
v 0.097828 -0.001489 -0.000047
v 0.097828 0.796909 -0.000047
v -0.097865 -0.001489 0.000047
v -0.097865 0.796909 0.000047
v 0.000031 -0.001489 0.097847
v 0.000031 0.796909 0.097847
v 0.000031 -0.001489 -0.097847
v 0.000031 0.796909 -0.097847
v -0.097847 0.893720 0.097847
v -0.097847 0.893720 -0.097847
v 0.097847 0.893720 -0.097847
v 0.097847 0.893720 0.097847
v -0.134642 0.893720 0.000000
v 0.134642 0.893720 0.000000
v 0.000000 0.893720 -0.134642
v 0.000000 0.893720 0.134642
v 0.000000 0.920741 0.000000
v -0.229336 0.779879 0.229336
v -0.229336 0.779879 -0.229336
v 0.229336 0.779879 -0.229336
v 0.229336 0.779879 0.229336
v -0.315578 0.779879 0.000000
v 0.315578 0.779879 0.000000
v 0.000000 0.779879 -0.315578
v 0.000000 0.779879 0.315578
v -0.483689 0.659121 0.483689
v -0.483689 0.659121 -0.483689
v 0.483689 0.659121 -0.483689
v 0.483689 0.659121 0.483689
v -0.665581 0.659121 0.000000
v 0.665581 0.659121 0.000000
v 0.000000 0.659121 -0.665581
v 0.000000 0.659121 0.665581
v -0.550254 0.553838 0.550254
v -0.550254 0.553838 -0.550254
v 0.550254 0.553838 -0.550254
v 0.550254 0.553838 0.550254
v -0.757178 0.553838 0.000000
v 0.757178 0.553838 0.000000
v 0.000000 0.553838 -0.757178
v 0.000000 0.553838 0.757178
vt 0.281997 0.024280
vt 0.373831 0.024280
vt 0.373831 0.001771
vt 0.281997 0.001771
vt 0.281790 0.001726
vt 0.373808 0.001726
vt 0.373808 0.024280
vt 0.281790 0.024280
vt 0.327958 0.077926
vt 0.327958 0.086104
vt 0.322015 0.083869
vt 0.319780 0.077926
vt 0.336136 0.077926
vt 0.333901 0.083869
vt 0.333901 0.071982
vt 0.327958 0.069747
vt 0.322015 0.071982
vt 0.341888 0.063996
vt 0.347126 0.077926
vt 0.308790 0.077926
vt 0.314029 0.063996
vt 0.341888 0.091855
vt 0.327958 0.097094
vt 0.314029 0.091855
vt 0.327958 0.058757
vt 0.327958 0.041410
vt 0.354495 0.051389
vt 0.301422 0.104462
vt 0.291443 0.077926
vt 0.364474 0.077926
vt 0.354495 0.104462
vt 0.327958 0.114441
vt 0.301422 0.051389
vt 0.361381 0.111348
vt 0.327958 0.123916
vt 0.281968 0.077926
vt 0.294536 0.044503
vt 0.327958 0.031935
vt 0.361381 0.044503
vt 0.294536 0.111348
vt 0.373949 0.077926
vn 0.0005 0.0000 1.0000
vn 1.0000 0.0000 0.0000
vn -0.1355 0.9815 0.1355
vn -0.1355 0.9815 -0.1355
vn 0.1355 0.9815 -0.1355
vn 0.1355 0.9815 0.1355
vn 0.1964 0.8299 -0.5222
vn 0.1964 0.8299 0.5222
vn -0.1964 0.8299 -0.5222
vn -0.5222 0.8299 0.1964
vn 0.5222 0.8299 0.1964
vn 0.5222 0.8299 -0.1964
vn -0.1964 0.8299 0.5222
vn 0.3237 0.9383 -0.1217
vn -0.1217 0.9383 0.3237
vn 0.1217 0.9383 -0.3237
vn -0.1217 0.9383 -0.3237
vn -0.3237 0.9383 0.1217
vn 0.3237 0.9383 0.1217
vn -0.3237 0.9383 -0.1217
vn 0.1217 0.9383 0.3237
vn -0.7258 0.6314 -0.2729
vn 0.2729 0.6314 0.7258
vn 0.7258 0.6314 -0.2729
vn -0.2729 0.6314 0.7258
vn 0.2729 0.6314 -0.7258
vn -0.2729 0.6314 -0.7258
vn -0.7258 0.6314 0.2729
vn 0.7258 0.6314 0.2729
vn -0.5222 0.8299 -0.1964
usemtl None
s off
f 1/1/1 2/2/1 4/3/1 3/4/1
f 7/5/2 8/6/2 6/7/2 5/8/2
f 17/9/3 13/10/3 9/11/3 16/12/3
f 15/13/4 10/14/4 13/10/4 17/9/4
f 11/15/5 15/13/5 17/9/5 14/16/5
f 14/16/6 17/9/6 16/12/6 12/17/6
f 11/15/7 20/18/7 24/19/7 15/13/7
f 16/12/8 25/20/8 21/21/8 12/17/8
f 15/13/9 24/19/9 19/22/9 10/14/9
f 13/10/10 22/23/10 18/24/10 9/11/10
f 12/17/11 21/21/11 23/25/11 14/16/11
f 14/16/12 23/25/12 20/18/12 11/15/12
f 9/11/13 18/24/13 25/20/13 16/12/13
f 20/18/14 23/25/14 31/26/14 28/27/14
f 25/20/15 18/24/15 26/28/15 33/29/15
f 24/19/16 20/18/16 28/27/16 32/30/16
f 19/22/17 24/19/17 32/30/17 27/31/17
f 18/24/18 22/23/18 30/32/18 26/28/18
f 23/25/19 21/21/19 29/33/19 31/26/19
f 22/23/20 19/22/20 27/31/20 30/32/20
f 21/21/21 25/20/21 33/29/21 29/33/21
f 30/32/22 27/31/22 35/34/22 38/35/22
f 29/33/23 33/29/23 41/36/23 37/37/23
f 28/27/24 31/26/24 39/38/24 36/39/24
f 33/29/25 26/28/25 34/40/25 41/36/25
f 32/30/26 28/27/26 36/39/26 40/41/26
f 27/31/27 32/30/27 40/41/27 35/34/27
f 26/28/28 30/32/28 38/35/28 34/40/28
f 31/26/29 29/33/29 37/37/29 39/38/29
f 10/14/30 19/22/30 22/23/30 13/10/30
