# Blender v2.79 (sub 0) OBJ File: 'EnvironmentObjects.blend'
# www.blender.org
mtllib Shrub_Tall.mtl
o Shrub_Tall
v -0.238545 0.002943 0.676273
v -0.238545 1.383795 0.676273
v -0.238545 1.383795 -0.676273
v -0.238545 0.002943 -0.676273
v -0.676273 0.002943 -0.265228
v -0.676273 1.383795 -0.265228
v 0.676273 1.383795 -0.265228
v 0.676273 0.002943 -0.265228
v 0.238545 0.002943 -0.676273
v 0.238545 1.383795 -0.676273
v 0.238545 1.383795 0.676273
v 0.238545 0.002943 0.676273
v 0.676273 0.002943 0.265228
v 0.676273 1.383795 0.265228
v -0.676273 1.383795 0.265228
v -0.676273 0.002943 0.265228
vt 0.002833 0.002052
vt 0.002833 0.123388
vt 0.121681 0.123388
vt 0.121681 0.002052
vt 0.121976 0.002052
vt 0.121976 0.123388
vt 0.003128 0.123388
vt 0.003128 0.002052
vt 0.121681 0.002052
vt 0.121681 0.123388
vt 0.002833 0.123388
vt 0.002833 0.002052
vt 0.003128 0.002052
vt 0.003128 0.123388
vt 0.121976 0.123388
vt 0.121976 0.002052
vn -1.0000 0.0000 0.0000
vn 0.0000 0.0000 -1.0000
vn 1.0000 0.0000 0.0000
vn 0.0000 0.0000 1.0000
usemtl None
s off
f 1/1/1 2/2/1 3/3/1 4/4/1
f 5/5/2 6/6/2 7/7/2 8/8/2
f 9/9/3 10/10/3 11/11/3 12/12/3
f 13/13/4 14/14/4 15/15/4 16/16/4
