# Blender v2.79 (sub 0) OBJ File: ''
# www.blender.org
mtllib HexTileSubdivTall.mtl
o HexTile_Subdiv
v 0.000002 0.000000 0.000000
v -4.161929 0.000004 -7.208713
v -8.323859 -0.000000 0.000001
v 4.161931 0.000004 -7.208713
v -4.161929 -0.000004 7.208713
v 4.161931 -0.000004 7.208713
v 8.323861 0.000000 -0.000001
v -12.500000 -0.000000 0.000001
v -6.250000 -0.000006 10.825375
v 12.500000 0.000000 -0.000001
v 6.250000 0.000006 -10.825375
v 6.250000 -0.000006 10.825375
v 6.250000 -96.038071 10.825372
v 12.500000 -96.038071 -0.000005
v -12.500000 -96.038071 -0.000003
v -6.250000 -96.038071 10.825372
v 6.250000 -96.038071 -10.825377
v -6.250000 -96.038071 -10.825377
v -6.250000 0.000006 -10.825375
vt 0.250000 0.250000
vt 0.209960 0.319290
vt 0.169985 0.250000
vt 0.290040 0.319290
vt 0.209960 0.180710
vt 0.290040 0.180710
vt 0.330015 0.250000
vt 0.126900 0.250000
vt 0.188400 0.143400
vt 0.373100 0.250000
vt 0.311600 0.356600
vt 0.311600 0.143400
vt 0.311600 0.143400
vt 0.373100 0.250000
vt 0.126900 0.250000
vt 0.188400 0.143400
vt 0.311600 0.356600
vt 0.188400 0.356600
vt 0.188400 0.356600
vn 0.0000 1.0000 0.0000
vn 0.8660 -0.0000 0.5000
vn -0.8660 -0.0000 0.5000
vn 0.0000 0.0000 -1.0000
vn -0.8660 0.0000 -0.5000
vn 0.8660 0.0000 -0.5000
vn 0.0000 -0.0000 1.0000
usemtl None
s 1
f 1/1/1 2/2/1 3/3/1
f 1/1/1 4/4/1 2/2/1
f 1/1/1 5/5/1 6/6/1
f 1/1/1 6/6/1 7/7/1
f 8/8/1 9/9/1 5/5/1 3/3/1
f 10/10/1 11/11/1 4/4/1 7/7/1
f 12/12/2 13/13/2 14/14/2 10/10/2
f 8/8/3 15/15/3 16/16/3 9/9/3
f 11/11/4 17/17/4 18/18/4 19/19/4
f 19/19/5 18/18/5 15/15/5 8/8/5
f 10/10/6 14/14/6 17/17/6 11/11/6
f 9/9/7 16/16/7 13/13/7 12/12/7
f 2/2/1 4/4/1 11/11/1 19/19/1
f 7/7/1 4/4/1 1/1/1
f 6/6/1 5/5/1 9/9/1 12/12/1
f 7/7/1 6/6/1 12/12/1 10/10/1
f 3/3/1 2/2/1 19/19/1 8/8/1
f 3/3/1 5/5/1 1/1/1
