# Blender v2.79 (sub 0) OBJ File: ''
# www.blender.org
mtllib HexTileExtrude.mtl
o HexTile_Flat
v 0.000002 0.000000 0.000000
v -6.250000 0.000004 -10.825375
v -12.500000 -0.000000 0.000001
v 6.250000 0.000004 -10.825375
v -6.250000 -0.000004 10.825375
v 6.250000 -0.000004 10.825375
v 12.500000 0.000000 -0.000001
v -6.250000 -7.508631 -10.825376
v -12.500000 -7.508635 -0.000000
v 6.250000 -7.508631 -10.825376
v -6.250000 -7.508638 10.825374
v 6.250000 -7.508638 10.825374
v 12.500000 -7.508635 -0.000002
vt 0.250000 0.250000
vt 0.188400 0.356600
vt 0.126900 0.250000
vt 0.311600 0.356600
vt 0.188400 0.143400
vt 0.311600 0.143400
vt 0.373100 0.250000
vt 0.311600 0.143400
vt 0.373100 0.250000
vt 0.126900 0.250000
vt 0.188400 0.143400
vt 0.311600 0.356600
vt 0.188400 0.356600
vn 0.0000 1.0000 0.0000
vn 0.8660 0.0000 0.5000
vn -0.8660 -0.0000 0.5000
vn 0.0000 0.0000 -1.0000
vn -0.8660 0.0000 -0.5000
vn 0.8660 0.0000 -0.5000
vn 0.0000 -0.0000 1.0000
usemtl None
s 1
f 1/1/1 2/2/1 3/3/1
f 1/1/1 4/4/1 2/2/1
f 1/1/1 5/5/1 6/6/1
f 1/1/1 6/6/1 7/7/1
f 3/3/1 5/5/1 1/1/1
f 7/7/1 4/4/1 1/1/1
f 6/6/2 12/8/2 13/9/2 7/7/2
f 3/3/3 9/10/3 11/11/3 5/5/3
f 4/4/4 10/12/4 8/13/4 2/2/4
f 2/2/5 8/13/5 9/10/5 3/3/5
f 7/7/6 13/9/6 10/12/6 4/4/6
f 5/5/7 11/11/7 12/8/7 6/6/7
