# Blender v2.79 (sub 0) OBJ File: 'EnvironmentObjects.blend'
# www.blender.org
mtllib PineTree_Large.mtl
o PineTree_Large
v 0.112300 5.820613 -1.455817
v -1.307727 5.941382 -0.705715
v 1.428448 5.885783 -0.557359
v -1.188830 5.761831 0.843637
v -0.076107 5.885783 1.479275
v 1.213386 6.027791 0.851288
v -0.485276 6.799521 0.247848
v -0.027999 6.799521 0.544183
v -0.000002 7.700426 0.000000
v 0.485272 6.799521 -0.247848
v 0.457275 6.799521 0.296335
v 0.027995 6.799521 -0.544183
v -0.457279 6.799521 -0.296335
v -0.960088 4.690784 -1.662926
v -1.920173 4.956591 0.000000
v 1.160700 5.047355 -1.662926
v -0.960088 4.750752 1.752856
v 0.495689 4.956591 1.801245
v 2.088076 4.634934 -0.155231
v -0.366967 6.201339 0.635605
v 0.366963 6.201339 0.635605
v -0.000002 6.406083 -0.000000
v 0.366963 6.201339 -0.635605
v 0.733928 6.201339 -0.000000
v -0.366967 6.201339 -0.635605
v -0.733932 6.201339 0.000000
v -2.679395 3.683767 -1.874568
v -2.357367 3.248614 0.897855
v 0.661288 3.202799 -2.589571
v -0.402006 3.324927 2.822613
v 2.040229 3.612855 1.813113
v 2.456034 3.511944 -0.638791
v -0.185854 4.934574 1.153940
v 0.906410 4.934574 0.737927
v -0.000002 5.461484 -0.000000
v 0.185850 4.934574 -1.153940
v 1.092262 4.934574 -0.416013
v -0.906414 4.934574 -0.737927
v -1.092266 4.934574 0.416013
v -1.674383 1.712611 -2.900129
v -3.348764 1.509163 -0.535580
v 1.674379 2.184364 -2.900129
v -1.833199 2.077149 3.085274
v 1.674379 2.053451 3.231810
v 3.348760 1.869895 -0.000000
v -0.905632 3.222499 1.568605
v 0.905628 3.222499 1.568605
v -0.000002 4.271223 -0.000000
v 0.905628 3.222500 -1.568605
v 1.811258 3.222500 -0.000000
v -0.905632 3.222500 -1.568605
v -1.811261 3.222500 0.000000
v -0.740562 -0.004830 -1.189731
v -1.427284 -0.004830 -0.370525
v 0.564284 -0.004830 -1.354722
v -0.847890 -0.004831 1.468593
v 1.075622 -0.004831 1.931576
v 2.032293 -0.004830 0.000000
v 1.483530 -0.004831 0.498863
v -1.929745 -0.004830 -0.953189
v 0.242549 -0.004831 1.448762
v -0.000002 -0.004829 -1.989681
v -1.483534 -0.004830 0.856522
v 1.820049 -0.004830 -0.856522
v -0.000002 1.434821 0.891434
v 0.441222 1.434821 0.764226
v -0.000002 7.406875 0.000001
v 0.771998 1.434822 -0.445716
v 0.882445 1.434822 0.000000
v 0.771998 1.434822 0.445717
v -0.441226 1.434822 -0.764225
v -0.772002 1.434822 -0.445716
v -0.882449 1.434821 0.000001
v -0.000002 1.434822 -0.891433
v 0.441222 1.434822 -0.764225
v -0.772002 1.434822 0.445717
v -0.441226 1.434821 0.764226
vt 0.790093 0.123056
vt 0.791180 0.144198
vt 0.772327 0.134569
vt 0.808946 0.132685
vt 0.771239 0.113427
vt 0.789005 0.101914
vt 0.807858 0.111543
vt 0.787136 0.065585
vt 0.837234 0.089983
vt 0.739286 0.150474
vt 0.743906 0.090280
vt 0.845589 0.144710
vt 0.794456 0.179616
vt 0.786751 0.121610
vt 0.772494 0.146304
vt 0.758237 0.121610
vt 0.801008 0.146304
vt 0.772494 0.096916
vt 0.801008 0.096916
vt 0.815265 0.121610
vt 0.806009 0.051630
vt 0.867875 0.127641
vt 0.712151 0.121610
vt 0.749451 0.053510
vt 0.831845 0.186216
vt 0.749451 0.186216
vt 0.786497 0.122569
vt 0.816100 0.088136
vt 0.831119 0.130989
vt 0.771479 0.079716
vt 0.801516 0.165423
vt 0.756895 0.157003
vt 0.741876 0.114149
vt 0.720908 0.205893
vt 0.688196 0.114980
vt 0.882801 0.140742
vt 0.821223 0.227753
vt 0.743455 0.028075
vt 0.876108 0.032513
vt 0.792241 0.131772
vt 0.757056 0.192714
vt 0.721872 0.131772
vt 0.827425 0.192714
vt 0.757056 0.070830
vt 0.827425 0.070830
vt 0.862610 0.131772
vt 0.857292 0.006214
vt 0.922343 0.131772
vt 0.662139 0.152580
vt 0.721020 0.011907
vt 0.857292 0.244444
vt 0.727190 0.244444
vt 0.819631 0.801175
vt 0.780841 0.830263
vt 0.773314 0.806749
vt 0.846863 0.837476
vt 0.825299 0.848139
vt 0.814238 0.756519
vt 0.838501 0.756949
vt 0.856245 0.773708
vt 0.866001 0.795572
vt 0.777782 0.783292
vt 0.863081 0.819726
vt 0.801596 0.843410
vt 0.792476 0.764973
vt 0.895036 0.919377
vt 0.845955 0.959402
vt 0.875239 0.639514
vt 0.945710 0.735388
vt 0.978189 0.778225
vt 0.973703 0.844208
vt 0.726253 0.690405
vt 0.807958 0.662323
vt 0.678769 0.895302
vt 0.683346 0.841086
vt 0.765991 0.930118
vt 0.686356 0.743947
vn -0.0000 1.0000 -0.0000
vn 0.0440 0.5175 -0.8545
vn -0.7181 0.5175 -0.4653
vn 0.7620 0.5175 -0.3892
vn -0.7620 0.5175 0.3892
vn -0.0440 0.5175 0.8545
vn 0.7181 0.5175 0.4653
vn -0.1069 0.7200 0.6856
vn 0.5256 0.7628 0.3767
vn 0.5304 0.7629 0.3698
vn -0.0815 0.7219 0.6872
vn -0.6215 0.7136 -0.3233
vn -0.6128 0.6817 0.3996
vn -0.6407 0.6803 0.3559
vn -0.6001 0.7136 -0.3614
vn 0.6015 0.7295 -0.3256
vn 0.0591 0.6883 -0.7230
vn 0.0415 0.6883 -0.7243
vn 0.5913 0.7269 -0.3494
vn -0.1344 0.9632 -0.2327
vn -0.2687 0.9632 0.0000
vn 0.1344 0.9632 -0.2327
vn -0.1344 0.9632 0.2327
vn 0.1344 0.9632 0.2327
vn 0.2687 0.9632 0.0000
vn 0.2813 0.6635 0.6933
vn 0.7513 0.6563 0.0694
vn 0.7524 0.6493 0.1110
vn 0.4015 0.6462 0.6490
vn -0.7389 0.6736 -0.0186
vn -0.3883 0.6734 0.6290
vn -0.3986 0.6728 0.6233
vn -0.7389 0.6736 -0.0161
vn 0.3823 0.7185 -0.5811
vn -0.3959 0.6389 -0.6595
vn -0.3927 0.6390 -0.6614
vn 0.3236 0.7142 -0.6206
vn -0.3187 0.9116 -0.2595
vn -0.3841 0.9116 0.1463
vn 0.0654 0.9116 -0.4057
vn -0.0654 0.9116 0.4057
vn 0.3187 0.9116 0.2595
vn 0.3841 0.9116 -0.1463
vn 0.4882 0.7522 0.4426
vn 0.6671 0.6990 -0.2576
vn 0.6578 0.6955 -0.2890
vn 0.5143 0.7516 0.4131
vn -0.6448 0.6819 0.3454
vn -0.1815 0.7146 0.6755
vn -0.1829 0.7145 0.6753
vn -0.6444 0.6817 0.3464
vn 0.2203 0.6822 -0.6972
vn -0.4874 0.8027 -0.3437
vn -0.4575 0.8012 -0.3856
vn 0.1985 0.6842 -0.7017
vn -0.2505 0.8654 -0.4339
vn -0.5011 0.8654 0.0000
vn 0.2505 0.8654 -0.4339
vn -0.2505 0.8654 0.4339
vn 0.2505 0.8654 0.4339
vn 0.5011 0.8654 0.0000
vn 0.2964 0.8273 0.4771
vn 0.6284 0.7778 0.0083
vn 0.6284 0.7779 -0.0000
vn 0.3246 0.8244 0.4637
vn -0.6919 0.7119 -0.1202
vn -0.3798 0.8066 0.4530
vn -0.3769 0.8071 0.4544
vn -0.7002 0.7132 -0.0338
vn 0.2856 0.7941 -0.5365
vn -0.3963 0.7345 -0.5509
vn -0.3696 0.7371 -0.5658
vn 0.2900 0.7943 -0.5339
vn -0.8565 0.1476 -0.4945
vn -0.9893 0.1462 0.0000
vn 0.4946 0.1462 -0.8567
vn 0.0000 0.1476 -0.9890
vn 0.0000 0.1476 0.9890
vn 0.4946 0.1462 0.8567
vn 0.8565 0.1476 0.4945
vn 0.9893 0.1462 -0.0000
vn -0.8565 0.1476 0.4945
vn 0.8565 0.1476 -0.4945
vn -0.4946 0.1462 -0.8567
vn -0.4946 0.1462 0.8567
vn 0.4833 0.4444 -0.7543
vn -0.0115 0.5237 -0.8518
vn -0.0087 0.5238 -0.8518
vn 0.4727 0.4445 -0.7609
vn 0.3732 0.5888 0.7170
vn 0.7556 0.4936 0.4306
vn 0.7637 0.4978 0.4110
vn 0.3447 0.5873 0.7323
vn 0.7981 0.5908 0.1187
vn 0.6589 0.5792 -0.4800
vn 0.6214 0.5619 -0.5460
vn 0.7958 0.5819 0.1675
vn -0.3675 0.4669 0.8043
vn -0.1657 0.4283 0.8883
vn -0.1451 0.4237 0.8941
vn -0.3533 0.4649 0.8118
vn -0.7503 0.5490 -0.3683
vn -0.8890 0.4080 0.2080
vn -0.8995 0.4071 0.1589
vn -0.7479 0.5491 -0.3732
vn -0.4348 0.4365 -0.7876
vn -0.4395 0.4366 -0.7850
vn -0.8024 0.4705 0.3671
vn -0.8105 0.4684 0.3516
usemtl None.001
s 1
f 9/1/1 12/2/2 13/3/3
f 9/1/1 10/4/4 12/2/2
f 9/1/1 7/5/5 8/6/6
f 9/1/1 8/6/6 11/7/7
f 13/3/3 7/5/5 9/1/1
f 11/7/7 10/4/4 9/1/1
f 5/8/8 6/9/9 11/7/10 8/6/11
f 2/10/12 4/11/13 7/5/14 13/3/15
f 3/12/16 1/13/17 12/2/18 10/4/19
f 1/13/17 2/10/12 13/3/15 12/2/18
f 6/9/9 3/12/16 10/4/19 11/7/10
f 4/11/13 5/8/8 8/6/11 7/5/14
f 22/14/1 25/15/20 26/16/21
f 22/14/1 23/17/22 25/15/20
f 22/14/1 20/18/23 21/19/24
f 22/14/1 21/19/24 24/20/25
f 26/16/21 20/18/23 22/14/1
f 24/20/25 23/17/22 22/14/1
f 18/21/26 19/22/27 24/20/28 21/19/29
f 15/23/30 17/24/31 20/18/32 26/16/33
f 16/25/34 14/26/35 25/15/36 23/17/37
f 14/26/35 15/23/30 26/16/33 25/15/36
f 19/22/27 16/25/34 23/17/37 24/20/28
f 17/24/31 18/21/26 21/19/29 20/18/32
f 35/27/1 38/28/38 39/29/39
f 35/27/1 36/30/40 38/28/38
f 35/27/1 33/31/41 34/32/42
f 35/27/1 34/32/42 37/33/43
f 39/29/39 33/31/41 35/27/1
f 37/33/43 36/30/40 35/27/1
f 31/34/44 32/35/45 37/33/46 34/32/47
f 28/36/48 30/37/49 33/31/50 39/29/51
f 29/38/52 27/39/53 38/28/54 36/30/55
f 27/39/53 28/36/48 39/29/51 38/28/54
f 32/35/45 29/38/52 36/30/55 37/33/46
f 30/37/49 31/34/44 34/32/47 33/31/50
f 48/40/1 51/41/56 52/42/57
f 48/40/1 49/43/58 51/41/56
f 48/40/1 46/44/59 47/45/60
f 48/40/1 47/45/60 50/46/61
f 52/42/57 46/44/59 48/40/1
f 50/46/61 49/43/58 48/40/1
f 44/47/62 45/48/63 50/46/64 47/45/65
f 41/49/66 43/50/67 46/44/68 52/42/69
f 42/51/70 40/52/71 51/41/72 49/43/73
f 40/52/71 41/49/66 52/42/69 51/41/72
f 45/48/63 42/51/70 49/43/73 50/46/64
f 43/50/67 44/47/62 47/45/65 46/44/68
f 67/53/1 72/54/74 73/55/75
f 67/53/1 75/56/76 74/57/77
f 67/53/1 65/58/78 66/59/79
f 67/53/1 70/60/80 69/61/81
f 73/55/75 76/62/82 67/53/1
f 69/61/81 68/63/83 67/53/1
f 70/60/80 67/53/1 66/59/79
f 72/54/74 67/53/1 71/64/84
f 65/58/78 67/53/1 77/65/85
f 74/57/77 71/64/84 67/53/1
f 67/53/1 68/63/83 75/56/76
f 67/53/1 76/62/82 77/65/85
f 55/66/86 62/67/87 74/57/88 75/56/89
f 57/68/90 59/69/91 70/60/92 66/59/93
f 58/70/94 64/71/95 68/63/96 69/61/97
f 56/72/98 61/73/99 65/58/100 77/65/101
f 60/74/102 54/75/103 73/55/104 72/54/105
f 53/76/106 60/74/102 72/54/105 71/64/107
f 54/75/103 63/77/108 76/62/109 73/55/104
f 59/69/91 58/70/94 69/61/97 70/60/92
f 63/77/108 56/72/98 77/65/101 76/62/109
f 62/67/87 53/76/106 71/64/107 74/57/88
f 61/73/99 57/68/90 66/59/93 65/58/100
f 64/71/95 55/66/86 75/56/89 68/63/96
