# Blender v2.79 (sub 0) OBJ File: 'EnvironmentObjects.blend'
# www.blender.org
mtllib PineTree_Tall.mtl
o PineTree_Tall_PineTree.002
v 0.072006 6.108179 -0.957244
v -0.867670 6.261467 -0.460878
v 0.942943 6.190897 -0.362705
v -0.788992 6.033568 0.564377
v -0.052669 6.190896 0.984999
v 0.800629 6.371142 0.569440
v -0.323428 7.350676 0.170125
v -0.020834 7.350676 0.366219
v -0.002307 8.494164 0.006116
v 0.318813 7.350676 -0.157892
v 0.300287 7.350676 0.202211
v 0.016219 7.350676 -0.353987
v -0.304902 7.350676 -0.189978
v -0.637626 4.674123 -1.094294
v -1.272945 5.011503 0.006116
v 0.765766 5.126706 -1.094294
v -0.637627 4.750239 1.166036
v 0.325707 5.011503 1.198057
v 1.379439 4.603233 -0.096605
v -0.245140 6.591423 0.426716
v 0.240525 6.591423 0.426716
v -0.002307 6.851296 0.006116
v 0.240525 6.591423 -0.414484
v 0.483357 6.591423 0.006116
v -0.245140 6.591423 -0.414484
v -0.487972 6.591423 0.006116
v -1.775346 3.395949 -1.234345
v -1.562250 2.843621 0.600255
v 0.435289 2.785471 -1.707484
v -0.268326 2.940484 1.873928
v 1.347778 3.305941 1.205910
v 1.622929 3.177859 -0.416592
v -0.125292 4.983557 0.769714
v 0.597494 4.983557 0.494426
v -0.002307 5.652347 0.006116
v 0.120677 4.983557 -0.757482
v 0.720478 4.983557 -0.269173
v -0.602109 4.983557 -0.482193
v -0.725093 4.983557 0.281405
v -1.110299 0.894022 -1.912991
v -2.218289 0.635792 -0.348294
v 1.105683 1.492803 -1.912990
v -1.215392 1.356720 2.047739
v 1.105683 1.326640 2.144707
v 2.213674 1.093658 0.006116
v -0.601591 2.810474 1.044112
v 0.596976 2.810475 1.044112
v -0.002307 4.141587 0.006116
v 0.596976 2.810477 -1.031879
v 1.196260 2.810475 0.006116
v -0.601591 2.810477 -1.031879
v -1.200875 2.810476 0.006116
v -0.740562 -0.004830 -1.189731
v -1.427284 -0.004830 -0.370525
v 0.564284 -0.004830 -1.354722
v -0.847890 -0.004831 1.468593
v 1.075622 -0.004831 1.931576
v 2.032293 -0.004830 0.000000
v 1.483530 -0.004831 0.498863
v -1.929745 -0.004830 -0.953189
v 0.242549 -0.004831 1.448762
v -0.000002 -0.004829 -1.989681
v -1.483534 -0.004830 0.856522
v 1.820049 -0.004830 -0.856522
v -0.000002 1.434821 0.891434
v 0.441222 1.434821 0.764226
v -0.000002 7.406875 0.000001
v 0.771998 1.434822 -0.445716
v 0.882445 1.434822 0.000000
v 0.771998 1.434822 0.445717
v -0.441226 1.434822 -0.764225
v -0.772002 1.434822 -0.445716
v -0.882449 1.434821 0.000001
v -0.000002 1.434822 -0.891433
v 0.441222 1.434822 -0.764225
v -0.772002 1.434822 0.445717
v -0.441226 1.434821 0.764226
vt 0.752169 0.126545
vt 0.753197 0.146528
vt 0.735377 0.137427
vt 0.769989 0.135646
vt 0.734349 0.117443
vt 0.751141 0.106562
vt 0.768961 0.115663
vt 0.749375 0.072223
vt 0.796727 0.095284
vt 0.704147 0.152460
vt 0.708513 0.095565
vt 0.804625 0.147012
vt 0.756293 0.180005
vt 0.757969 0.118460
vt 0.744493 0.141800
vt 0.731018 0.118460
vt 0.771445 0.141800
vt 0.744493 0.095119
vt 0.771445 0.095119
vt 0.784920 0.118460
vt 0.776172 0.052315
vt 0.834647 0.124160
vt 0.687457 0.118460
vt 0.722713 0.054092
vt 0.800592 0.179526
vt 0.722713 0.179526
vt 0.748771 0.121606
vt 0.776752 0.089059
vt 0.790948 0.129564
vt 0.734575 0.081100
vt 0.762967 0.162111
vt 0.720791 0.154153
vt 0.706595 0.113647
vt 0.686776 0.200364
vt 0.655857 0.114433
vt 0.839798 0.138783
vt 0.781594 0.221026
vt 0.708087 0.032290
vt 0.833471 0.036485
vt 0.758679 0.125825
vt 0.725422 0.183428
vt 0.692166 0.125825
vt 0.791935 0.183428
vt 0.725422 0.068223
vt 0.791935 0.068223
vt 0.825192 0.125825
vt 0.820165 0.007147
vt 0.881652 0.125825
vt 0.635706 0.145493
vt 0.691360 0.012528
vt 0.820165 0.232324
vt 0.697192 0.232324
vt 0.815209 0.761295
vt 0.843962 0.717056
vt 0.860452 0.738267
vt 0.773799 0.734392
vt 0.791844 0.715427
vt 0.837431 0.804908
vt 0.812477 0.813549
vt 0.788075 0.803063
vt 0.769924 0.784373
vt 0.864665 0.763908
vt 0.763869 0.758598
vt 0.817834 0.711388
vt 0.856505 0.788126
vt 0.693925 0.668729
vt 0.729100 0.609463
vt 0.818882 0.947296
vt 0.710995 0.875699
vt 0.661777 0.844080
vt 0.641669 0.774978
vt 0.952079 0.839542
vt 0.879097 0.898811
vt 0.923925 0.612400
vt 0.939536 0.669513
vt 0.821770 0.609463
vt 0.972811 0.769900
vn -0.0000 1.0000 -0.0000
vn 0.0490 0.3007 -0.9524
vn -0.8003 0.3007 -0.5187
vn 0.8493 0.3007 -0.4338
vn -0.8493 0.3007 0.4338
vn -0.0490 0.3007 0.9524
vn 0.8003 0.3007 0.5187
vn -0.1564 0.4742 0.8664
vn 0.6940 0.5239 0.4939
vn 0.6984 0.5240 0.4875
vn -0.0957 0.4782 0.8730
vn -0.7825 0.4690 -0.4095
vn -0.7570 0.4369 0.4858
vn -0.7803 0.4360 0.4483
vn -0.7609 0.4691 -0.4482
vn 0.7579 0.4839 -0.4375
vn 0.0758 0.4434 -0.8931
vn 0.0541 0.4434 -0.8947
vn 0.7637 0.4851 -0.4259
vn -0.2359 0.8817 -0.4086
vn -0.4718 0.8817 -0.0000
vn 0.2359 0.8817 -0.4086
vn -0.2359 0.8817 0.4086
vn 0.2359 0.8817 0.4086
vn 0.4718 0.8817 0.0000
vn 0.3574 0.4184 0.8350
vn 0.9058 0.4105 0.1048
vn 0.9056 0.4100 0.1085
vn 0.4432 0.4092 0.7976
vn -0.9029 0.4291 -0.0262
vn -0.4806 0.4287 0.7650
vn -0.4808 0.4287 0.7649
vn -0.9030 0.4292 -0.0165
vn 0.4824 0.4741 -0.7366
vn -0.4757 0.3973 -0.7848
vn -0.4675 0.3974 -0.7896
vn 0.4278 0.4712 -0.7714
vn -0.5072 0.7564 -0.4130
vn -0.6112 0.7564 0.2328
vn 0.1040 0.7564 -0.6458
vn -0.1040 0.7564 0.6458
vn 0.5072 0.7564 0.4130
vn 0.6112 0.7564 -0.2328
vn 0.6347 0.5114 0.5793
vn 0.8229 0.4520 -0.3443
vn 0.8252 0.4526 -0.3380
vn 0.6653 0.5109 0.5443
vn -0.7887 0.4357 0.4338
vn -0.2471 0.4682 0.8483
vn -0.2133 0.4716 0.8556
vn -0.7962 0.4383 0.4171
vn 0.2654 0.4379 -0.8590
vn -0.6676 0.5744 -0.4737
vn -0.6374 0.5732 -0.5150
vn 0.2433 0.4395 -0.8647
vn -0.3716 0.6691 -0.6436
vn -0.7431 0.6691 0.0000
vn 0.3716 0.6691 -0.6436
vn -0.3716 0.6691 0.6436
vn 0.3716 0.6691 0.6436
vn 0.7431 0.6691 0.0000
vn 0.4239 0.6085 0.6708
vn 0.8401 0.5421 0.0159
vn 0.8402 0.5422 -0.0001
vn 0.4385 0.6070 0.6628
vn -0.8725 0.4676 -0.1422
vn -0.5234 0.5797 0.6245
vn -0.4931 0.5854 0.6436
vn -0.8815 0.4687 -0.0571
vn 0.3868 0.5629 -0.7304
vn -0.5252 0.4897 -0.6960
vn -0.4684 0.4948 -0.7319
vn 0.3993 0.5633 -0.7233
vn -0.8565 0.1476 -0.4945
vn -0.9893 0.1462 0.0000
vn 0.4946 0.1462 -0.8567
vn 0.0000 0.1476 -0.9890
vn 0.0000 0.1476 0.9890
vn 0.4946 0.1462 0.8567
vn 0.8565 0.1476 0.4945
vn 0.9893 0.1462 -0.0000
vn -0.8565 0.1476 0.4945
vn 0.8565 0.1476 -0.4945
vn -0.4946 0.1462 -0.8567
vn -0.4946 0.1462 0.8567
vn 0.4833 0.4444 -0.7543
vn -0.0115 0.5237 -0.8518
vn -0.0087 0.5238 -0.8518
vn 0.4727 0.4445 -0.7609
vn 0.3732 0.5888 0.7170
vn 0.7556 0.4936 0.4306
vn 0.7637 0.4978 0.4110
vn 0.3447 0.5873 0.7323
vn 0.7981 0.5908 0.1187
vn 0.6589 0.5792 -0.4800
vn 0.6214 0.5619 -0.5460
vn 0.7958 0.5819 0.1675
vn -0.3675 0.4669 0.8043
vn -0.1657 0.4283 0.8883
vn -0.1451 0.4237 0.8941
vn -0.3533 0.4649 0.8118
vn -0.7503 0.5490 -0.3683
vn -0.8890 0.4080 0.2080
vn -0.8995 0.4071 0.1589
vn -0.7479 0.5491 -0.3732
vn -0.4348 0.4365 -0.7876
vn -0.4395 0.4366 -0.7850
vn -0.8024 0.4705 0.3671
vn -0.8105 0.4684 0.3516
usemtl None.001
s 1
f 9/1/1 12/2/2 13/3/3
f 9/1/1 10/4/4 12/2/2
f 9/1/1 7/5/5 8/6/6
f 9/1/1 8/6/6 11/7/7
f 13/3/3 7/5/5 9/1/1
f 11/7/7 10/4/4 9/1/1
f 5/8/8 6/9/9 11/7/10 8/6/11
f 2/10/12 4/11/13 7/5/14 13/3/15
f 3/12/16 1/13/17 12/2/18 10/4/19
f 1/13/17 2/10/12 13/3/15 12/2/18
f 6/9/9 3/12/16 10/4/19 11/7/10
f 4/11/13 5/8/8 8/6/11 7/5/14
f 22/14/1 25/15/20 26/16/21
f 22/14/1 23/17/22 25/15/20
f 22/14/1 20/18/23 21/19/24
f 22/14/1 21/19/24 24/20/25
f 26/16/21 20/18/23 22/14/1
f 24/20/25 23/17/22 22/14/1
f 18/21/26 19/22/27 24/20/28 21/19/29
f 15/23/30 17/24/31 20/18/32 26/16/33
f 16/25/34 14/26/35 25/15/36 23/17/37
f 14/26/35 15/23/30 26/16/33 25/15/36
f 19/22/27 16/25/34 23/17/37 24/20/28
f 17/24/31 18/21/26 21/19/29 20/18/32
f 35/27/1 38/28/38 39/29/39
f 35/27/1 36/30/40 38/28/38
f 35/27/1 33/31/41 34/32/42
f 35/27/1 34/32/42 37/33/43
f 39/29/39 33/31/41 35/27/1
f 37/33/43 36/30/40 35/27/1
f 31/34/44 32/35/45 37/33/46 34/32/47
f 28/36/48 30/37/49 33/31/50 39/29/51
f 29/38/52 27/39/53 38/28/54 36/30/55
f 27/39/53 28/36/48 39/29/51 38/28/54
f 32/35/45 29/38/52 36/30/55 37/33/46
f 30/37/49 31/34/44 34/32/47 33/31/50
f 48/40/1 51/41/56 52/42/57
f 48/40/1 49/43/58 51/41/56
f 48/40/1 46/44/59 47/45/60
f 48/40/1 47/45/60 50/46/61
f 52/42/57 46/44/59 48/40/1
f 50/46/61 49/43/58 48/40/1
f 44/47/62 45/48/63 50/46/64 47/45/65
f 41/49/66 43/50/67 46/44/68 52/42/69
f 42/51/70 40/52/71 51/41/72 49/43/73
f 40/52/71 41/49/66 52/42/69 51/41/72
f 45/48/63 42/51/70 49/43/73 50/46/64
f 43/50/67 44/47/62 47/45/65 46/44/68
f 67/53/1 72/54/74 73/55/75
f 67/53/1 75/56/76 74/57/77
f 67/53/1 65/58/78 66/59/79
f 67/53/1 70/60/80 69/61/81
f 73/55/75 76/62/82 67/53/1
f 69/61/81 68/63/83 67/53/1
f 70/60/80 67/53/1 66/59/79
f 72/54/74 67/53/1 71/64/84
f 65/58/78 67/53/1 77/65/85
f 74/57/77 71/64/84 67/53/1
f 67/53/1 68/63/83 75/56/76
f 67/53/1 76/62/82 77/65/85
f 55/66/86 62/67/87 74/57/88 75/56/89
f 57/68/90 59/69/91 70/60/92 66/59/93
f 58/70/94 64/71/95 68/63/96 69/61/97
f 56/72/98 61/73/99 65/58/100 77/65/101
f 60/74/102 54/75/103 73/55/104 72/54/105
f 53/76/106 60/74/102 72/54/105 71/64/107
f 54/75/103 63/77/108 76/62/109 73/55/104
f 59/69/91 58/70/94 69/61/97 70/60/92
f 63/77/108 56/72/98 77/65/101 76/62/109
f 62/67/87 53/76/106 71/64/107 74/57/88
f 61/73/99 57/68/90 66/59/93 65/58/100
f 64/71/95 55/66/86 75/56/89 68/63/96
